<svg width="16" height="17" viewBox="0 0 16 17" fill="none" xmlns="http://www.w3.org/2000/svg">
<mask id="mask0_156_394" style="mask-type:luminance" maskUnits="userSpaceOnUse" x="2" y="4" width="12" height="9">
<rect x="2.66667" y="4.98871" width="10.6667" height="8" fill="white"/>
</mask>
<g mask="url(#mask0_156_394)">
<path fill-rule="evenodd" clip-rule="evenodd" d="M5.33334 4.98871H11V12.9887H5.33334V4.98871Z" fill="#F7FCFF"/>
<path d="M8.00033 11.6557H7.77181L7.91146 10.5004C7.88869 10.5046 6.37518 10.7814 6.5013 10.6401C6.62678 10.4994 6.69971 10.2431 6.7015 10.2368L5.33334 9.30511C5.33334 9.30511 5.54934 9.30229 5.72494 9.19574C5.89907 9.09002 5.55502 8.46707 5.54916 8.45648L6.24056 8.55902L6.5013 8.26898L7.02279 8.82562H7.25716L7.02279 7.55023L7.44271 7.78949L7.99056 6.98871L8.00033 11.6557ZM8.55697 7.78949L8.97689 7.55023L8.74252 8.82562H8.97689L9.49837 8.26898L9.76009 8.55902L10.4505 8.45648C10.4434 8.46943 10.101 9.09023 10.2747 9.19574C10.4476 9.3007 10.6598 9.30501 10.6663 9.30511L9.29818 10.2368C9.29962 10.2419 9.37263 10.499 9.49837 10.6401C9.62486 10.7818 8.10254 10.5031 8.08822 10.5004L8.22787 11.6557H8.00033V6.98871L8.55697 7.78949Z" fill="#E31D1C"/>
<path fill-rule="evenodd" clip-rule="evenodd" d="M10.6667 4.98871H13.3333V12.9887H10.6667V4.98871Z" fill="#E31D1C"/>
<path fill-rule="evenodd" clip-rule="evenodd" d="M2.66667 4.98871H5.33333V12.9887H2.66667V4.98871Z" fill="#E31D1C"/>
</g>
</svg>
