<svg width="16" height="17" viewBox="0 0 16 17" fill="none" xmlns="http://www.w3.org/2000/svg">
<path d="M3.40625 13.5712C2.83125 12.9962 3.2125 11.7899 2.91875 11.0837C2.625 10.3774 1.5 9.75867 1.5 8.97742C1.5 8.19617 2.6125 7.60242 2.91875 6.87117C3.225 6.13992 2.83125 4.95867 3.40625 4.38367C3.98125 3.80867 5.1875 4.18992 5.89375 3.89617C6.6 3.60242 7.21875 2.47742 8 2.47742C8.78125 2.47742 9.375 3.58992 10.1062 3.89617C10.8375 4.20242 12.0188 3.80867 12.5938 4.38367C13.1687 4.95867 12.7875 6.16492 13.0813 6.87117C13.375 7.57742 14.5 8.19617 14.5 8.97742C14.5 9.75867 13.3875 10.3524 13.0813 11.0837C12.775 11.8149 13.1687 12.9962 12.5938 13.5712C12.0188 14.1462 10.8125 13.7649 10.1062 14.0587C9.4 14.3524 8.78125 15.4774 8 15.4774C7.21875 15.4774 6.625 14.3649 5.89375 14.0587C5.1625 13.7524 3.98125 14.1462 3.40625 13.5712Z" stroke="#184EC9" stroke-linecap="round" stroke-linejoin="round"/>
<path d="M10.75 7.47742L7.08125 10.9774L5.25 9.22742" stroke="#184EC9" stroke-linecap="round" stroke-linejoin="round"/>
</svg>
